# xmcd
#
# Track frame offsets: 
#        150
#        17060
#        37488
#        62902
#        85208
#        106121
#        127295
#        142232
#        158243
#        175752
#        189291
#        211510
#        235200
#        255897
#
# Disc length: 3588 seconds
#
# Revision: 0
# Processed by: cddbd v1.5.2PL0 Copyright (c) Steve Scherf et al.
# Submitted via: ExactAudioCopy v1.0b4
#
DISCID=c00e020e
DTITLE=Sie Gubba - Live - 20 År
DYEAR=2015
DGENRE=Country
TTITLE0=Gammel Tid
TTITLE1=Alt Du Vil Ha
TTITLE2=Hemafrå
TTITLE3=Låven
TTITLE4=Senga Di
TTITLE5=Så Kom Du
TTITLE6=Flommen
TTITLE7=Det E Leng Sea No
TTITLE8=Æ å Du
TTITLE9=Veien Vi Ska Gå
TTITLE10=Heim Te Stuggudal
TTITLE11=Sånn E Livet
TTITLE12=Fjellrypa
TTITLE13=Te Mæ Med
EXTD=
EXTT0=
EXTT1=
EXTT2=
EXTT3=
EXTT4=
EXTT5=
EXTT6=
EXTT7=
EXTT8=
EXTT9=
EXTT10=
EXTT11=
EXTT12=
EXTT13=
PLAYORDER=
